<svg id="Layer_1" data-name="Layer 1" xmlns="http://www.w3.org/2000/svg" viewBox="0 0 53 73"><defs><style>.cls-1{fill:#c60000;}.cls-2{fill:#fff;}</style></defs><title>meat</title><path class="cls-1" d="M311,287a2,2,0,0,1-1.09-.33l-15.25-10a2,2,0,0,1-.89-1.44l-5.75-50a2,2,0,0,1,1.5-2.17l20-5a2,2,0,0,1,1,0l20,5a2,2,0,0,1,1.48,1.55l5,25a2,2,0,0,1-.31,1.52l-24,35A2,2,0,0,1,311,287Z" transform="translate(-286 -216)"/><path class="cls-2" d="M310,220l20,5,5,25-24,35-15.25-10L290,225l20-5m0-4a4,4,0,0,0-1,.12l-20,5a4,4,0,0,0-3,4.34l5.75,50a4,4,0,0,0,1.78,2.89l15.25,10a4,4,0,0,0,5.49-1.08l24-35a4,4,0,0,0,.62-3l-5-25a4,4,0,0,0-3-3.1l-20-5a4,4,0,0,0-1-.12h0Z" transform="translate(-286 -216)"/><polygon class="cls-2" points="37.43 14.04 26.5 13.94 25 48.94 23.55 53.22 22 49 20.49 14 10.19 14 11.99 11.72 23.81 9.2 35.78 11.76 37.43 14.04"/></svg>